<svg id="Laag_2_Image" data-name="Laag 2 Image" xmlns="http://www.w3.org/2000/svg" viewBox="0 0 401.69 590.54"><defs><style>.cls-1{fill:#fff;}</style></defs><path d="M.1,371.4A8.38,8.38,0,0,1,4,368.1c2.3-1.2,4.6-2.4,6.8-3.7,1.9-1.1,3.8-2.3,5.7-3.2,5.8-2.6,10.8-6.5,15.7-10.5,7.1-5.9,14.3-11.9,21.5-17.7a80.14,80.14,0,0,1,26.4-14.1c9-2.8,17.9-6,26.8-9a6.14,6.14,0,0,0,3.8-3.9,30,30,0,0,1,1.8-4.1c4.3-7.7,12.7-9.3,19.3-7.1,5.2,1.7,10.9.5,14-3.5,7.3-9.2,16.8-14.7,28-17.6a80.24,80.24,0,0,1,32-2.2c4.9.7,9.8,1.1,14.8,1.7a7.29,7.29,0,0,1,5,2.8,3.7,3.7,0,0,1,.5,1.1,15.52,15.52,0,0,1,.4,2.1c.4,3.2,2.3,5,5.3,6l6.9,2.4a2.35,2.35,0,0,0,.8.2c1.8.3,2.4-.1,2.4-1.9,0-3-.2-5.9-.4-8.8-.3-4.1-.6-8.3-1.3-12.4s-1.6-8-2.4-12c-.4-2-1.2-4-1.2-6-.1-4.7-2.3-8.8-3.5-13.2s-2.3-8.8-3.7-13.1c-2.2-6.8-4.6-13.6-7.1-20.3a39.54,39.54,0,0,0-2.8-5.4c-1.9-3.7-3.9-7.4-5.8-11.2a10.66,10.66,0,0,1-.7-1.9c-.1-.6-.1-1.2-.2-1.8a1.45,1.45,0,0,0-2.9-.1,12.59,12.59,0,0,1-2.3,5.6,8,8,0,0,1-2.8,2.4,3.39,3.39,0,0,1-4.4-1.2c-2.3-3-4.8-5.8-5.7-9.6-.7-2.7-3-3.3-5-1.2a43.73,43.73,0,0,1-7.7,5.9c-1.8,1.1-3.6,2.3-5.3,3.5a8.42,8.42,0,0,1-6.7,1.6c-1.1-.2-2.3-.3-3.4-.6a13.07,13.07,0,0,1-2.7-1.2c-2.1-1.5-2.3-3.7-.3-5.3,3-2.5,5-5.8,7.3-8.8.2-.3.4-.7.6-1a2.57,2.57,0,0,0,.2-3c-.7-1.1-1.8-1.1-2.9-1-.4,0-.7.1-1.1.1a7.13,7.13,0,0,1-5.9-1.5c-4.6-3.3-9.9-4.5-15.5-5s-11.3-.6-16.6-2.6a93.45,93.45,0,0,1-23.6-12.9c-15.3-11.7-24.6-27.2-29.2-45.8-5-20.1-1.7-39.1,8.3-57,6.1-11,14-20.4,24.5-27.5A77.52,77.52,0,0,1,141.4,1.3c3.3-.5,6.7-.7,10-1.1a4.25,4.25,0,0,0,1.1-.2h6c2.3.2,4.5.4,6.8.7a76.57,76.57,0,0,1,26.1,7.8c21.8,10.6,35,28.3,41.5,51.3a75,75,0,0,1,2.4,29.8c-1,8.3-3.6,16.1-6.7,23.8a22.52,22.52,0,0,1-3.2,5.9c-.4.5-.8,1.5-.6,1.9s1.3.7,2,.8c1,.2,2.1.2,3.1.4a1.67,1.67,0,0,1,1.1,2,13.79,13.79,0,0,1-.8,2.9c-1.4,2.9-2.8,5.7-4.2,8.6a21.69,21.69,0,0,0-1.5,3.5c-.4,1.3-.1,2,1.4,2.2a20.84,20.84,0,0,0,9.6-.5,5.22,5.22,0,0,1,2.1-.4,4.11,4.11,0,0,1,2.1,1.2c.6.7.3,1.5-.2,2.2-4.1,5.5-8.8,10.3-15.3,12.9-2.8,1.1-3.2,2.2-2.4,5.1a20.94,20.94,0,0,0,1.3,3.5,272.16,272.16,0,0,0,14.7,27.1,24.3,24.3,0,0,1,1.6,3.7c2.7,6.7,5.5,13.5,8,20.3s4,14.2,5.3,21.5c1.1,5.9,2.4,11.7,3.5,17.6.8,4.1,1.5,8.3,2,12.4,1.3,10.2,2.5,20.5,3.8,30.7.3,2.6.5,5.3.8,7.9a27.41,27.41,0,0,0,.5,2.8,1.27,1.27,0,0,0,1.5,1.1,9.08,9.08,0,0,1,4.3.7c2.6.9,4.4.2,6-2.2a21.81,21.81,0,0,0,4-14.8c-.2-2.8,0-5.6-.1-8.4a2.67,2.67,0,0,0-.7-1.4,23.4,23.4,0,0,1-2.4-3.1c-1.4-2.4-.9-4.6,1.5-5.8a68.2,68.2,0,0,1,7.9-3.1c1.3-.5,2.7-.7,4-1.3,3.9-1.8,5.6-5.4,4.2-9.4a31.64,31.64,0,0,0-7.1-11.6,20.49,20.49,0,0,0-4.2-2.8c-2.1-1.1-2.9-2.2-2.8-4.4a4.45,4.45,0,0,1,3.1-4.4,21.89,21.89,0,0,1,9.5-.9c6,.8,10.5,4,14.3,8.5,2.6,3.2,3.4,3.4,7.1,1.6a51.32,51.32,0,0,1,15.8-5.1,21.65,21.65,0,0,1,11.3,1.1c7.7,3.2,15.8,3.8,24,3.5,3.2-.1,6.4-.2,9.6,0,7.1.6,13.1,3.8,18.2,8.5a83.58,83.58,0,0,1,5.8,6.1c1.9,2.2,2.6,5,3,7.8a40.36,40.36,0,0,1-1.1,18.6,14.43,14.43,0,0,1-2.6,4.9c-1.3,1.8-3.1,1.8-4.8.4a33.15,33.15,0,0,1-2.7-2.6c-5.4-5.1-11.9-6.7-19-5.6-4.5.7-7.1,4.8-6.5,9.3.2,1.5.5,3,.6,4.5.1,3.5-1.7,5.3-5.2,5.1-2.4-.2-4.7-.8-7.1-1.2-2-.4-3.9-.9-5.9-1.2-2.7-.4-3.8.5-3.7,3.2,0,1.6.2,3.2.3,4.8.9,12.7-2.3,24-11.7,33.1-1.4,1.4-2.9,2.7-4.4,4.1-.4.4-.7.8-1.3,1.5,1,.2,1.6.4,2.3.5,3.9.3,5.6,2.1,5.7,5.9,0,1.2-.1,2.5-.1,3.7s.4,1.8,1.6,1.9l5.4.3a3.49,3.49,0,0,0,1.7-.6,1.65,1.65,0,0,0,.8-2.4c-.4-.8-.9-1.6-1.4-2.4-1.2-2.1-1.5-4.5,1.1-6.3,2.3-1.6,3.5-4.1,4.4-6.7.4-1.1.7-2.3,1.2-3.4a5.91,5.91,0,0,1,5.7-4,34.9,34.9,0,0,1,15.2,3.5c6.3,2.8,11.8,7,17,11.6,2.2,2,2.7,4.7,3,7.5a33.74,33.74,0,0,1-3.7,19.7c-1.6,3.1-2.1,6.5-2.6,9.9-.9,6.4-3.2,12.4-5.5,18.3-.9,2.3-1.8,4.6-2.8,6.9-1.5,3.6-3.9,6.2-7.8,7.3a7.7,7.7,0,0,0-5.2,5.3c-1.3,3.5-2.5,7-3.7,10.5-9.4,26.5-18.9,53-28.3,79.6-1,2.9-1.9,5.8-3,8.6-2,4.8-4.9,9.1-9.9,11-8.1,3-16.2,6.4-24.7,8.3a40.32,40.32,0,0,1-8.4,1.1c-6.2.1-12.3,0-18.5-.2a82.06,82.06,0,0,1-20.8-3.3c-7.1-2-14.5-3.4-21.7-5.2a54.15,54.15,0,0,1-17.9-7.9,28.22,28.22,0,0,1-11.7-16.5c-5-18.8-10.2-37.4-15.3-56.2-.8-3-1.6-6.1-2.3-9.2a11.31,11.31,0,0,0-2.7-5.2,9.35,9.35,0,0,0-1.9,1.4,7,7,0,0,0-1.4,2.1c-1.1,2.9-2.4,5.6-4.8,7.6a5.9,5.9,0,0,1-6.9.8,13.17,13.17,0,0,1-5.7-5c-3.2-5-7.6-8.3-12.9-10.8a10.83,10.83,0,0,1-4.3-3.9,35.51,35.51,0,0,1-5.4-14.4c-1.1-6.9-1.5-13.8-.1-20.8a28.14,28.14,0,0,1,3.4-9.3c2.5-4.4,5-8.8,7.7-13.1a22.46,22.46,0,0,1,7.4-7.3,5.31,5.31,0,0,0,2.5-5.6c-.4-3.5-1.1-6.9-1.6-10.4s-.6-6.8-.9-10.3a21.3,21.3,0,0,0-.3-2.5,1.49,1.49,0,0,0-2.3-1.1,4.73,4.73,0,0,0-1.2.7c-3.2,2.2-6.5,4.4-9.7,6.7a50,50,0,0,0-5.8,4.5,13.45,13.45,0,0,1-10.1,3.6c-3.9-.2-7.8-.3-11.6-.7-2.6-.3-5.1-1-7.6-1.5a25.72,25.72,0,0,0-3.8-.8,4.63,4.63,0,0,0-4.8,2.7,16.59,16.59,0,0,0-1.2,3.1,9.44,9.44,0,0,1-3.4,5.3c-.9.7-1.8,1.4-2.7,2-3.6,2.5-7.2,5-10.8,7.6-5.2,3.7-10.7,6.8-17,7.9a60.48,60.48,0,0,1-8.5.4c-5.2.2-10.3.7-15.5.6-10.1-.1-19.8-2.5-29.3-5.8-1-.3-1.7-1.2-2.6-1.8A3.75,3.75,0,0,0,.1,371.4ZM174,402.9c.2,1.4.4,2.5.6,3.5a4.73,4.73,0,0,0,2.6,3.5c2.9,1.3,3.9,3.7,3.8,6.6,0,2.7.1,5.4-1.4,8-1.2,2-1.7,4.4-2.4,6.6a2.48,2.48,0,0,0,.1,1.9,40.48,40.48,0,0,1,2.6,9.2c.7,3.8,1.4,7.6,2.3,11.3,1.2,4.8,2.8,9.5,4.1,14.3,2.5,10,4.8,20,8,29.8,1,2.9,1.4,6.1,2.5,9,1.2,3.2,2.8,6.3,4.2,9.5a11.5,11.5,0,0,0,4.4,5.1c3.6,2.1,7.4,4.1,11.1,6,4.7,2.4,9.3,2.4,14.3.5,8.8-3.2,16.8-7.4,23.2-14.5,2.7-3,5.8-5.7,8.7-8.6a5.82,5.82,0,0,0,1.3-6.8,2.82,2.82,0,0,0-3.7-2l-4.9,1.2c-2.5.6-3.5,0-4.2-2.5a16.72,16.72,0,0,0-2.9-6c-1-1.2-2.2-2.3-3.3-3.4-3.1-3.2-3.1-7,.2-9.7a10,10,0,0,1,3.7-1.9c3.5-1.1,3.6-1.3,2.8-4.8s-2.5-6-6.2-7.3a12.62,12.62,0,0,1-8.5-10.2,16.77,16.77,0,0,0-5.6-10.4,29.49,29.49,0,0,1-2.5-2.5,27.88,27.88,0,0,1-5.8-8.5c-.5-1.1-1-2.1-1.5-3.1-1-1.8-.7-2.7,1.2-3.5a2.88,2.88,0,0,1,3.2.5,18.78,18.78,0,0,1,2.4,2.5c1.7,2.4,3.2,5,4.8,7.4a8.66,8.66,0,0,0,10.1,3.9,4.39,4.39,0,0,1,3.2.4,30.44,30.44,0,0,0,3.9,1.4c2.7.6,5.2-.5,7.6-1.3,6.8-2.4,13-5.9,19.4-9.3a9.73,9.73,0,0,0,2.8-2.2,7.16,7.16,0,0,0,2.1-5.7c-.1-.7-.8-1.3-1.2-1.9a18.48,18.48,0,0,1-1.4,1.4c-.1.1-.1.2-.2.3a2.14,2.14,0,0,1-2.3,1.4c-2.7,0-5.4,0-8,.2-2.3.2-4.6.8-6.9.9a82.78,82.78,0,0,1-22.2-2c-9.5-2-19-4.1-28.5-6.4a216.47,216.47,0,0,1-33.3-10.1A42.11,42.11,0,0,1,174,402.9Zm-56.4-96.7a12.08,12.08,0,0,1,1.4-.3,3,3,0,0,1,1.3.2q2.4.6.6,2.4a14.62,14.62,0,0,1-1.9,1.6,20.68,20.68,0,0,1-7.5,3.9,60.3,60.3,0,0,0-7.6,1.9c-7,2.5-14,5.2-21,7.8-4.5,1.7-9.1,3.5-13.5,5.4a51.34,51.34,0,0,0-12.9,8.7c-4.7,4.1-9.6,7.9-14.4,11.9A90.85,90.85,0,0,1,29,358.9c-5.2,3-10.5,5.7-15.8,8.6-2.3,1.2-4.6,2.3-6.9,3.5-.3.1-.4.5-.6.8.3.2.5.5.8.5a105.85,105.85,0,0,0,22.3,3.6,125.43,125.43,0,0,0,18.4-.2,41.42,41.42,0,0,0,19.5-7.3c3.9-2.8,7.6-6,11.3-9.1a30.51,30.51,0,0,0,8.6-10.6,5.25,5.25,0,0,1,3.8-3,14.89,14.89,0,0,1,4.7-.1c3,.6,6,1.6,9,2.4,8,2.1,15.7,1.6,22.8-2.9,3.8-2.4,7.5-5.1,11.3-7.6a37.7,37.7,0,0,1,16.3-6.4,33.72,33.72,0,0,1,17.4,2.8,27.45,27.45,0,0,0,8.8,2.4c3.8.3,7.6.5,11.5.6a49,49,0,0,0,5.4-.4c.9-.1,1.7.1,1.9.9a4.24,4.24,0,0,1-.1,2.5,11.09,11.09,0,0,1-2,2.4c-.6.6-1.1,1.4-.6,2.1a3.75,3.75,0,0,0,2.1,1.2,5.59,5.59,0,0,0,2.5-.5c3.1-1.3,6-3.1,9.5-3.3a.73.73,0,0,0,.6-1.2c-1.4-2.1-2.6-4.4-4.2-6.4-3-3.7-7.1-6.1-11.3-8.3-12.3-6.4-24.8-11.9-38.9-12.7a62.83,62.83,0,0,0-17.3,1.2c-2.6.6-5,1.6-7.5,2.3a2.09,2.09,0,0,1-2.8-1.4,2,2,0,0,1,1.2-2.9,43.77,43.77,0,0,1,13.4-3.2c1.5-.1,3,.2,4.5.2a4.44,4.44,0,0,0,3.5-1.2c-3.6-3.2-8.1-4.6-12.5-6a85.36,85.36,0,0,0-10.3-2.1c-3-.5-5.9-.4-8.5,1.5C119.7,302.9,118.3,304.1,117.6,306.2ZM334,436.1c-.1,1.2.1,1.5,1,1.9a13.36,13.36,0,0,0,1.8.7,2.82,2.82,0,0,1,1.7,3.4,10.6,10.6,0,0,1-1,3c-1.3,2.4-2.7,4.7-4,7.1s-2.4,4.7-3.7,7c-2.1,3.6-4.2,7.3-6.5,10.8-1.2,1.9-2.9,3.4-4.3,5.2-2.5,3.1-5.2,5.9-6.9,9.6a7.3,7.3,0,0,1-5.4,4.3c-2.8.5-5.6,1.2-8.4,1.9a4.69,4.69,0,0,0-2.4,1.5,48.73,48.73,0,0,0-3.3,4.3c-3.4,4.3-6.6,8.8-10.2,12.8A123,123,0,0,1,267,523.9c-5.8,4.6-12.2,8.1-19.6,9.5-.9.2-1.8.5-2.8.8v.4c1,.5,2,1.2,3,1.6,4.3,1.9,8.9,2.2,13.6,2.3l8.7.3a24.2,24.2,0,0,0,3.8.2c2.9-.1,5.8-.2,8.7-.5a100,100,0,0,0,12.4-1.6c8.2-1.7,15.7-5.5,23-9.5a5.85,5.85,0,0,0,2.1-1.7,44.27,44.27,0,0,0,3.6-5.9c1.4-3.1,2.6-6.4,3.8-9.7,1.6-4.2,3.4-8.4,4.9-12.7,6.4-18.4,12.7-36.9,19.2-55.3,1.6-4.5,1.6-9,1.2-13.6-.1-1.1-.9-1.8-1.8-1.4-1.6.8-3.2.6-4.8.8a43.11,43.11,0,0,0-4.9,1.1c-2.5.6-2.5.6-2.4,3.2.1,2.1-.6,3.1-2.7,3.5A17.66,17.66,0,0,0,334,436.1ZM154.7,3.6a75.94,75.94,0,1,0,76,76A75.89,75.89,0,0,0,154.7,3.6ZM257.8,414.8v.3c9.4-.5,18.7-.9,28.1-1.5a24.36,24.36,0,0,0,14.7-6c2.8-2.4,4.9-5.6,2.7-10.3-1-2.2-2.1-4.3-3.3-6.5a134.36,134.36,0,0,0-11.7-17.9,18.08,18.08,0,0,1-1.9-2.9c-.9-2.2-1.7-2.7-3.9-1.9-3.6,1.4-7.2,2.8-10.8,4.1A22.53,22.53,0,0,0,259,383c-2.4,4.5-5.4,8.8-8.2,13.1-2.2,3.3-5.3,3.5-8.1.9-.8-.7-1.4-1.6-2.1-2.3-1.9-2-3.8-3.9-5.8-5.8a42.34,42.34,0,0,0-4-3.4c-2.7-1.8-5-4-7.9-5.4a43.65,43.65,0,0,1-5.5-3.2c-2.3-1.5-4.5-1.3-6.8-.1a2,2,0,0,0-1.2,2.1,46.94,46.94,0,0,0,2.6,11.8c1.6,4.1,2.9,8.3,4.4,12.5a31.43,31.43,0,0,0,1.8,4.6c1.5,2.6,3.7,4.8,6.7,5.1,6,.7,12,1.3,18,1.6A148.78,148.78,0,0,0,257.8,414.8ZM233.9,342c-3.1.4-6.1.8-9,1.3-4.3.8-8.6,1.5-12.8,2.7a40,40,0,0,0-25.2,19.9c-2.7,5-4,10.5-5.2,15.9-.6,2.5-.3,4.7,1.7,6.4.7.6,1.9,1.4,2.7,1.1s1.3-1.5,1.5-2.5a18.06,18.06,0,0,1,2.7-7.1,42.1,42.1,0,0,1,9.3-10,19.91,19.91,0,0,1,11.9-4.3,28.42,28.42,0,0,1,10,1.7c4.4,1.7,8.7,3.6,13,5.5,3.3,1.5,6.5,1.6,9.6-.3a38.18,38.18,0,0,0,11-10.2c2.1-3,4-6.3,6.1-9.3,2.6-3.8,6.2-6.4,10.8-6.6,7.6-.4,15.3-.5,22.9-.8,5-.2,10-.3,15-.5a38.56,38.56,0,0,0,4.9-.9,1.48,1.48,0,0,0,1.3-1.7c-.1-.9-.9-.9-1.7-1-1.5-.1-3-.1-4.4-.3a57.49,57.49,0,0,1-14.8-4.4,53.91,53.91,0,0,0-26.3-4.2,61.74,61.74,0,0,0-19.7,5.6,14.89,14.89,0,0,0-6,4.5c-3.6,4.9-6.3,10.1-5.6,16.4a1.79,1.79,0,0,1-2.2,2.1c-2.4-.4-4.1-1.5-3.4-4.3.1-.3.1-.5.2-.8C232.6,351.4,233.2,346.8,233.9,342Zm-99.1,69.7c.2,2.4.3,4.9.7,7.3a24.42,24.42,0,0,0,8.9,16c1.8,1.5,3.7,2.7,5.6,4,3,2.1,5.7,4.5,7.3,7.9a3.1,3.1,0,0,0,2,1.5c1.6.6,3.1-.4,4.1-2.4,4-7.9,7.9-15.7,11.9-23.6.4-.9.8-1.7,1.1-2.6.4-1.4.1-2.3-1-2.8-2.8-1.2-4.4-3.4-5.6-6.1-.8-1.9-1.8-3.7-2.7-5.6-3-6.3-2.8-12.4,1.5-18a53,53,0,0,1,6-5.6c3.9-3.5,6.5-7.5,6-12.9a11.4,11.4,0,0,1,.2-2.6c.1-1.1-.3-1.7-1.4-1.5a8.25,8.25,0,0,0-2.6,1c-2.6,1.7-5.2,3.4-7.8,5.2-5.6,4-10.6,8.4-14.5,14.1a42.1,42.1,0,0,0-6.1,14.3c-.3,1.4-1.1,2-2.1,1.7a2.19,2.19,0,0,1-1.6-2.7,46.44,46.44,0,0,1,1.1-5.1c2-7.7,5.7-14.4,11.9-19.5,5-4.2,10.3-8.1,15.5-12a6.19,6.19,0,0,1,1.9-.7,6,6,0,0,0,1.9-.6,2.27,2.27,0,0,0,.6-1.6c0-.3-.8-.7-1.2-.8a3.24,3.24,0,0,0-2.8,1.4,2.48,2.48,0,0,1-1.4.8,25.56,25.56,0,0,0-14.4,7.3c-3.9,4.2-7.8,8.4-11.6,12.8a48,48,0,0,0-8.4,13.4C135.4,399.4,135,405.5,134.8,411.7ZM306.1,329c.3,1.9.4,3.4.7,4.9a2.86,2.86,0,0,0,2.4,2.5,72.92,72.92,0,0,0,16.8,2.1,4.76,4.76,0,0,0,2.5-.9,29.36,29.36,0,0,0,7.2-9.9,9,9,0,0,0,.9-3.2c.2-2.7.2-5.4.2-8,0-1.7,0-3.4.1-5.2.4-4.7-.8-8.7-4.3-12a4.74,4.74,0,0,1-1.2-1.9c-1.4-4.3-2.6-8.7-4-13-2.4-7.6-6.3-14.2-13-18.9a31.37,31.37,0,0,1-7-6.6,97.74,97.74,0,0,0-12.5-14,5.56,5.56,0,0,0-5.5-1.6,1.27,1.27,0,0,0-.8.8c-.1.2.3.7.5.8,2.1,1.1,3.1,3,4.1,5a25.62,25.62,0,0,0,2.2,4,38.6,38.6,0,0,1,5.5,9.4c2.2,5.7,4.2,11.5,6.2,17.3a14.88,14.88,0,0,1,.8,4.2c.5,7.2.8,14.3,1.3,21.5.4,6.5,0,12.8-2.2,19C306.6,326.5,306.4,327.9,306.1,329ZM209,277.6a14.75,14.75,0,0,0,1.9,1.8c1.2,1,2.5,1.8,3.6,2.9,2,1.9,4,3.9,5.9,5.9a8.69,8.69,0,0,1,1.6,2.6,2.77,2.77,0,0,1-.8,3.4c-.9.5-1.7.1-3-1.1-3-2.8-5.9-5.8-9.2-8.4a34.9,34.9,0,0,0-26.4-7.7,45.22,45.22,0,0,0-19.2,6.5c-4.6,2.7-8.4,6.7-13.3,9.1-1.3.6-2.1,2-2.3,3.9a55.07,55.07,0,0,0,6.5-2.1c4.1-2,8.1-4.2,12.2-6.3,3-1.6,6.1-2.7,9.6-2.3a25.49,25.49,0,0,0,3.9.2c8.3-.7,15.5,2.3,22.4,6.4a5.52,5.52,0,0,1,2.8,6.2c-.3,1.3-.7,2.5-1.1,3.8a27.59,27.59,0,0,0-.8,2.7c-.4,2.3.2,3.7,2.3,4.7s4.3,1.6,6.5,2.4a3.93,3.93,0,0,1,2.9,2.4c.9,2.5,1.8,5.1,2.9,7.6,1.9,4.2,3.4,8.5,2.2,13.3a2.33,2.33,0,0,0,1.9,3.1,12.19,12.19,0,0,0,2.7,0,3.11,3.11,0,0,0,2.6-1.5,11.32,11.32,0,0,0,1.9-6.2c-.1-3.9,0-7.8,0-11.6a2.23,2.23,0,0,1,.6-1.3c1.2-.9,3.8-.1,4,1.4.6,3.9,2.4,7.7,1.1,11.7-.1.3.4,1.1.6,1.1a2.81,2.81,0,0,0,1.5-.6,1.16,1.16,0,0,0,.2-1,11.82,11.82,0,0,1,1.4-5.5c3.5-8,3.3-15.8-1.6-23.1a63.18,63.18,0,0,0-6.3-7.4c-2.6-2.9-5.4-5.8-8-8.8-1.1-1.2-1.7-2.8-2.7-4.1-2.2-3.1-5.6-3.9-9-4.5A5.84,5.84,0,0,0,209,277.6Zm165.2,85.9a7.13,7.13,0,0,0-1.1-5.7,13.4,13.4,0,0,0-7.3-5.7c-2.5-.7-4.9-1.7-7.3-2.5a1.72,1.72,0,0,0-2.1.5,18.76,18.76,0,0,0-1.2,1.8c-.9,1.9-.3,2.8,1.7,3.2a32.85,32.85,0,0,1,4.5,1.1c3.7,1.3,6.7,3.7,9.7,6.3a8,8,0,0,1,2.2,2.3,3.63,3.63,0,0,1-2,5.2,46.2,46.2,0,0,1-6.6,2.1,11.55,11.55,0,0,0-6.7,4.1,11.77,11.77,0,0,0-2.5,8.5c.2,2.2-.9,3.5-2.8,3.3a12.07,12.07,0,0,0-10.1,3.9c-1.8,1.8-3.5,3.7-5.4,5.5a10.3,10.3,0,0,0-3.4,5.5c-.5,2.2-.8,4.5-1.4,6.8-.7,2.7-1.6,5.2-2.3,7.9-.5,1.9.2,3,2.1,3.1a99.2,99.2,0,0,0,10.9-.3,92.9,92.9,0,0,0,17.3-3.4,28.28,28.28,0,0,0,4.1-1.4c2-.9,2.1-2.7.3-4-.6-.4-1.3-.9-1.9-1.3-1.8-1.4-1.9-2.3,0-3.6,2.2-1.4,4.4-2.6,6.6-4a7.13,7.13,0,0,0,2.1-1.7,2,2,0,0,0,.3-1.7c-.1-.3-.9-.5-1.4-.6-1.2-.2-2.5-.3-3.6-.6a2.34,2.34,0,0,1-1.9-2,2.62,2.62,0,0,1,1.3-2.8,20.62,20.62,0,0,1,2.6-1.2c1.7-.7,3.5-1.2,5.1-1.9a6.43,6.43,0,0,0,3.7-5.8c0-.6,0-1-.9-1a6.71,6.71,0,0,0-3.2,1,30.3,30.3,0,0,1-4.2,1.6,2.8,2.8,0,0,1-3.4-2.3c-.3-1.2.3-1.6,2-2.5a68,68,0,0,0,8.3-4.7c6-4.1,9.2-9.8,8.6-17.2a7.16,7.16,0,0,0-2.6-5.3c-.4-.3-1.1-.2-1.6-.2,0,.5-.1.9-.1,1.4a28,28,0,0,1,.3,5C380.7,362.9,378,364,374.2,363.5ZM362.3,251.1a.9.9,0,0,0-.1-.5c-2.3.4-4.8.3-6.7,1.2a117.31,117.31,0,0,0-12.9,7.5,33,33,0,0,0-11.1,11.5,7.88,7.88,0,0,0-.6,7.3c1.6,4,3.1,8,2.8,12.5-.1,1.9.5,2.6,2.3,3.3,1.2.4,2.4.8,3.6,1.3a74.72,74.72,0,0,0,15.3,3.9c2.5.3,3.3-.5,3.1-3a40.92,40.92,0,0,1-.1-7,10,10,0,0,1,3.4-7.1,44.63,44.63,0,0,1,5-3.5c3.2-2.1,3.4-3.1,1-6.1-1.4-1.8-2.8-3.6-4-5.5a4.12,4.12,0,0,1,.7-5.5c3.1-2.7,6.8-4.1,10.8-3.3a81,81,0,0,1,9.6,2.8,4.71,4.71,0,0,0,1.6.4c1.1,0,1.3-.6.7-1.5-1.3-2.1-3.3-3.4-5.3-4.7-4.1-2.7-8.4-4.6-13.4-4.3A54.41,54.41,0,0,0,362.3,251.1ZM331,439.8v-.3c-5.5.8-11.1,1.3-16.6,2.3-9.2,1.7-18,4.5-26.9,7.3-1.7.5-2.2,1.4-1.9,3.2.3,1.6.7,3.2,1,4.8,1.5,6.4,2.9,12.9,6.6,18.6a12.11,12.11,0,0,1,1.8,7.7,3.61,3.61,0,0,0,.3,1.8,1.25,1.25,0,0,0,1.2.5c1.6-.2,3.2-.6,4.8-.7a9.89,9.89,0,0,0,7.6-3.6c1.7-2.1,3.3-4.3,4.9-6.5,2.9-3.7,5.9-7.4,8.7-11.1a26.72,26.72,0,0,0,5.7-13.5,5.07,5.07,0,0,1,2.5-4.1,6.07,6.07,0,0,0,2.5-5.3c0-.3-.6-.8-1-1S331.4,439.8,331,439.8ZM247.4,234.2c.1,0,.3-.1.4-.1-.4-3.1-.8-6.2-2.4-8.9a67.2,67.2,0,0,1-7.2-16.5,110,110,0,0,0-10.6-24.4c-2-3.3-3.6-6.8-5.4-10.3-.6-1.1-.9-2.3-1.5-3.4a1.15,1.15,0,0,0-.9-.6c-.2,0-.5.4-.6.7-.6,1.5-1.1,2.9-1.6,4.4a5.44,5.44,0,0,0,1.5,6,8.52,8.52,0,0,1,1.7,2.9c.6,1.5,1,3,1.6,4.5,2.5,5.9,5.1,11.7,7.4,17.6,2.1,5.4,4,10.9,5.9,16.4a93.21,93.21,0,0,1,3.3,10.2c2,8.2,3.7,16.4,5.5,24.6a82.12,82.12,0,0,1,1.7,9.7c.6,6.8,1,13.5,1.4,20.3.1,2.1.5,4.2-.4,6.2a9.48,9.48,0,0,0-.5,3.8,3.25,3.25,0,0,0,2.1,3.2c1.3.6,2.4,0,3.4-.8.7-.6,1.4-1.3,2.1-1.8a1.64,1.64,0,0,0,.8-2,13.51,13.51,0,0,1-.4-2.8c-.1-1.9,0-3.7-.2-5.6-.1-1.6-.5-3.2-.6-4.7-.5-4.7-1-9.3-1.5-14-.6-5.4-1-10.7-1.7-16.1-.5-3.8-1.1-7.6-1.8-11.3C248.6,239,247.9,236.6,247.4,234.2Zm51.1,35.5a20.1,20.1,0,0,1-1.9,2.5,28,28,0,0,1-8.5,5,40.2,40.2,0,0,0-4.7,2.2,2.22,2.22,0,0,0-1.3,2.5,7.83,7.83,0,0,0,.7,2.5,23.28,23.28,0,0,1,1.9,17.7c-2,7.3-5.6,13.8-9.5,20.3-.6,1-1.3,1.9-1.9,2.9a6.52,6.52,0,0,0-.3,1.6,6.55,6.55,0,0,0,1.4,0,12.09,12.09,0,0,0,1.8-.5,17.63,17.63,0,0,1,4-.7c1.7-.1,3.3-.3,4.5-1.4,2.7-2.5,5.7-4.9,7.8-7.9,3.5-4.9,6.4-10.3,9.4-15.5a17.25,17.25,0,0,0,1.8-9.5,38,38,0,0,0-.6-5.9c-1-4.5-2.2-8.9-3.4-13.3A7.16,7.16,0,0,0,298.5,269.7Zm-2.3,92.9a.37.37,0,0,0-.3.1c.7,3.2,1.2,6.5,2,9.7a41.28,41.28,0,0,0,7.3,14.3c1,1.2,1.9,1.4,2.8.4,4.3-4.7,8.7-9.2,12.8-14.1a36.2,36.2,0,0,0,7.4-16c.3-1.7-.4-2.8-2.1-2.8a72.26,72.26,0,0,0-9.3.3c-5.3.7-10.4,2.4-15.8,2.8C298.5,357.5,296,359.2,296.2,362.6Zm-84.5-209v.1a1.7,1.7,0,0,1,.7.1c5.3.4,9.5-1.7,13-5.6a2.1,2.1,0,0,0,.5-1.5c0-.3-.8-.5-1.3-.6a50.09,50.09,0,0,1-5.2-1.4,19.3,19.3,0,0,0-10.1-1c-2.4.4-3.7,1.4-4.2,3.6-.8,3.2-1.8,4-5.1,4.4a16.66,16.66,0,0,0-7.2,2.1c-2.4,1.5-3.3,3.6-2.4,6.2a12.44,12.44,0,0,0,1.9,3.6c3.3,4.5,6.9,8.8,9,14.1.3.8.7,1.7,1.8,1.6s1.6-.9,1.9-1.7c.7-1.7,1.3-3.4,2-5.1a15.65,15.65,0,0,0,.1-12.2A19.36,19.36,0,0,1,206,156a1.5,1.5,0,0,1,1.4-1.9A29.75,29.75,0,0,1,211.7,153.6Zm-41,200.6c-2.5-1.1-4.9-1.9-7-3.1a4.2,4.2,0,0,1-2.6-3.8c0-.9.4-1.4,1.3-1.2.3.1.7.1,1.1.2,4.6,1.3,9.2,2.6,13.8,4,3.9,1.2,7.6.9,11-1.7a5.12,5.12,0,0,0,2-5.1,2.24,2.24,0,0,0-2-2.1c-2.9-.4-5.7-.9-8.6-1.1-3.8-.2-7.4-.8-10.8-2.9-3.1-1.9-5.3-1-6.8,2.4a6.7,6.7,0,0,1-1.1,1.8,1.85,1.85,0,0,1-2.5.2,1.62,1.62,0,0,1-.8-2.1c.2-.8.5-1.7.7-2.5a1.23,1.23,0,0,0-.8-1.6c-2.1-.7-4,.3-4.1,2.6-.1,5.7-.1,11.5-.1,17.2a18.44,18.44,0,0,0,.6,4.1,1.75,1.75,0,0,0,2.2,1.5,12,12,0,0,0,2.7-.8c3.4-1.6,6.8-3.3,10.2-5C169.7,355.2,170.2,354.6,170.7,354.2Zm10.1,41a4.27,4.27,0,0,0-1.4,1.3c-1,1.8-.3,3.6,1.7,4.6,9.7,4.7,20,7.6,30.5,9.8a1.57,1.57,0,0,0,1.5-.5,2,2,0,0,0,0-1.7,107.48,107.48,0,0,1-8.7-23.1c-.5-2.1-1.5-3.3-3.7-3.5-4-.4-6,.1-7,4.9a30.48,30.48,0,0,1-2,6.5c-1.3,2.8-3.6,3.7-6.7,3Zm146.8-5.1c0,2.1,1.4,3,3.1,2.1a32.31,32.31,0,0,1,4.2-2,21,21,0,0,0,8.7-6,39.86,39.86,0,0,1,7.5-7.3,4.39,4.39,0,0,0,1.8-4,27,27,0,0,0-.7-4.1A3.51,3.51,0,0,0,349,366a23.58,23.58,0,0,0-4.6-.1,27.44,27.44,0,0,0-10,3.3c-4.7,2.6-7.8,7.4-6.5,13.4.5,2.4.9,4.7-.2,7C327.6,389.7,327.7,390,327.6,390.1Zm15.1-138a2.79,2.79,0,0,0-2.3-2.6c-2.1-.6-4.2-1.1-6.2-1.5a.88.88,0,0,0-.7.1c-5.2.7-10.3,1.4-15.5,2.2a11.3,11.3,0,0,0-6.5,3.5c-.7.8-.8,1.4-.1,2.2a35.5,35.5,0,0,0,9.1,8.2,12.94,12.94,0,0,1,5,4.3c.4.7.9.6,1.3,0a10.92,10.92,0,0,1,1.3-1.7c1.5-1.7,3.1-3.3,4.5-5.1,2.3-3,4.7-5.8,8.1-7.5a5,5,0,0,0,1.2-.8A4.58,4.58,0,0,0,342.7,252.1ZM277.2,479.4a12.09,12.09,0,0,0-.8-2.5c-1.7-3.5-4.9-5.2-8.4-6.4-.3-.1-.7.1-1,.2l-8.1,3.6c-3.4,1.4-6.9,2.7-9.8,5.1a2,2,0,0,0,0,3.3,9,9,0,0,1,1.9,2c1.1,1.6,2,3.3,3.2,4.8,2.1,2.6,3.8,2.8,6.1,1a8.65,8.65,0,0,1,1-.7c1.2-.8,2.5-1.6,3.8-2.3s2.6-1.1,3.9-1.7c1.6-.7,3.2-1.6,4.9-2.2C276.1,482.9,277,481.8,277.2,479.4ZM195.3,315.1c1.5,0,3.3.1,4.3-1.5s.1-3.2-.7-4.6a7.34,7.34,0,0,1-.8-6.6c1.2-3.8-.2-5.7-4.2-6.3-1.3-.2-2.6-.1-3.8-.3a8.31,8.31,0,0,0-7.5,2.3c-1.3,1.3-2.3,2.7-3.5,4.1-1.5,1.7-3,3.5-4.6,5.2a1,1,0,0,0,.4,1.8c3.8,1.3,7.7,2.7,11.5,4A33.65,33.65,0,0,0,195.3,315.1Zm69.1-.8c-3.1.2-3.9,1.1-3,3.7,1.3,3.9.8,4.7-3,6.1a3.77,3.77,0,0,0-1.6,1.2,2.71,2.71,0,0,0,.1,3.1c.7.9,1.5.4,2.3.1a2.92,2.92,0,0,1,.9-.2c2.7.1,4.5-1.3,6-3.3a59.83,59.83,0,0,1,4-4.8c1.7-1.9,1.3-4.1-1.1-4.9C267.4,314.9,265.9,314.7,264.4,314.3Zm-93-133.4a5.13,5.13,0,0,1,1-.1c3-.5,5.1-2.4,7.1-4.5a29.72,29.72,0,0,1,4.8-3.8c2-1.3,2.8-2.7,2.3-5a19.3,19.3,0,0,0-1.1-3.4c-.4-1.2-1-1.2-1.8-.3-1.1,1.3-2.2,2.7-3.2,4-2.4,3.1-4.9,6.2-7.2,9.4A25.13,25.13,0,0,0,171.4,180.9ZM376,352.2c.6-.3,1.3-.5,1.6-1,.2-.3-.4-1.1-.7-1.6a3.92,3.92,0,0,0-1-.8,90.07,90.07,0,0,0-17.8-8.3c-2.1-.7-3.1-.1-3.7,1.9-.4,1.2-.2,1.5,1.1,1.8s2.6.5,3.8.8a61.21,61.21,0,0,1,14.7,6.2A6.26,6.26,0,0,0,376,352.2Zm-71.9-42.8c-1.2,0-1.8.9-2.4,1.7-3,4.4-6.1,8.8-9.1,13.2l-1.8,2.7c.1.1.2.2.2.3a31.09,31.09,0,0,0,4.4-.8,5,5,0,0,0,3.8-4.1,11.33,11.33,0,0,0,.1-3.2,2.78,2.78,0,0,1,.9-2.7,17.24,17.24,0,0,0,2.7-2.7,6.47,6.47,0,0,0,.9-1.6A12.65,12.65,0,0,0,304.1,309.4Zm18.8,126.8c2.2-.3,4.1-.4,5.9-.7s2.5-1.1,2.8-3q.3-2.25-1.8-2.1a8.67,8.67,0,0,1-4.5-.6,1.65,1.65,0,0,0-2.4,1.2c-.4,1.1-.7,2.3-1,3.4C321.6,435.7,322.1,436.2,322.9,436.2Zm-36.6-79v.3c1.4-.3,2.9-.4,4.3-.8,1-.3,1.8-.9,1.7-2s-1-1.2-1.8-1.5c-1.4-.6-2.9-1.1-4.3-1.8-.9-.5-1.6-.5-2.1.4a21.1,21.1,0,0,0-1.6,3.4c-.5,1.3,0,2,1.4,2.1C284.7,357.3,285.5,357.2,286.3,357.2ZM206.6,325c1,0,1.5-1,1.1-2s-.5-1.8-.8-2.7a9.36,9.36,0,0,0-.4-1.6,2.44,2.44,0,0,0-2.4-1.2c-.9.2-1.8.4-2.6.6s-1.1.6-1,1.4C200.8,321.9,204.3,324.9,206.6,325Zm46.8-17.3c0-1.8-.7-2.7-1.8-2.4s-2,.5-3,.8c-1.3.3-1.6.9-1.4,2.2a22.31,22.31,0,0,1,.4,2.3c.4,2.6,1,2.8,3,1.1A6.91,6.91,0,0,0,253.4,307.7Zm95.1,52.1a7,7,0,0,0,5.9,2.1,1.17,1.17,0,0,0,1-.6c.1-.3-.2-.8-.5-1A5.11,5.11,0,0,0,348.5,359.8Z"/><path d="M189.1,568.1c-.4-5.1-.6-10.2-1.2-15.3a14.46,14.46,0,0,1,1-6.2,6.14,6.14,0,0,1,4.6-4.2,16.5,16.5,0,0,1,12.9,1.2,72.76,72.76,0,0,1,8.3,5.3c2.1,1.5,4.5,3,6.1,4.9,2.5,3,4.9,6.2,4.3,10.5a4,4,0,0,1-.7,1.8c-3.3,3.8-6.7,7.5-10,11.4a54.75,54.75,0,0,0-3.4,4.6,19.63,19.63,0,0,1-8,6.9c-2.5,1.2-5.5,2.4-8.5.7a6.91,6.91,0,0,1-2.2-1.6c-2.6-2.7-3-6.2-3.2-9.6s-.3-7-.4-10.5A.76.76,0,0,0,189.1,568.1Zm3.9-.5a35,35,0,0,0,3.1,15.7c.8,1.8,2,2.2,3.6,1.1,2.5-1.8,5-3.6,7.3-5.6,1.9-1.7,3.5-3.8,5.3-5.7s4-3.6,5.9-5.5c2.6-2.5,2.8-5.4.4-7.9a83.14,83.14,0,0,0-6.8-6.5A38.84,38.84,0,0,0,198,546c-1.5-.5-2.3,0-2.5,1.6-.2,1.2-.4,2.4-.6,3.7C193.9,556.7,192.9,562.1,193,567.6Z"/><path class="cls-1" d="M174,402.9q2.4,1.05,4.5,1.8a241.11,241.11,0,0,0,33.3,10.1c9.5,2.2,19,4.3,28.5,6.4a82.78,82.78,0,0,0,22.2,2c2.3-.1,4.6-.7,6.9-.9a71.23,71.23,0,0,1,8-.2,2.29,2.29,0,0,0,2.3-1.4c0-.1.1-.2.2-.3a18.48,18.48,0,0,1,1.4-1.4c.4.6,1.1,1.2,1.2,1.9a7.16,7.16,0,0,1-2.1,5.7,11.83,11.83,0,0,1-2.8,2.2c-6.3,3.3-12.6,6.9-19.4,9.3-2.5.9-4.9,1.9-7.6,1.3a18.16,18.16,0,0,1-3.9-1.4,4.45,4.45,0,0,0-3.2-.4c-4.2,1.1-7.6-.3-10.1-3.9-1.7-2.4-3.2-5-4.8-7.4a14.06,14.06,0,0,0-2.4-2.5,2.91,2.91,0,0,0-3.2-.5c-1.9.8-2.2,1.7-1.2,3.5a17.72,17.72,0,0,1,1.5,3.1,30.54,30.54,0,0,0,5.8,8.5c.8.8,1.6,1.7,2.5,2.5a17.31,17.31,0,0,1,5.6,10.4c.9,5.1,3.8,8.6,8.5,10.2,3.6,1.3,5.3,3.8,6.2,7.3s.7,3.6-2.8,4.8a13,13,0,0,0-3.7,1.9c-3.2,2.7-3.2,6.5-.2,9.7,1.1,1.2,2.3,2.2,3.3,3.4a13.45,13.45,0,0,1,2.9,6c.6,2.5,1.6,3.1,4.2,2.5,1.6-.4,3.2-.8,4.9-1.2a2.82,2.82,0,0,1,3.7,2,6,6,0,0,1-1.3,6.8c-2.9,2.9-6,5.5-8.7,8.6-6.4,7.1-14.4,11.3-23.2,14.5-5,1.8-9.7,1.8-14.3-.5q-5.7-2.85-11.1-6a10.45,10.45,0,0,1-4.4-5.1c-1.4-3.2-3-6.2-4.2-9.5-1.1-2.9-1.5-6-2.5-9-3.2-9.8-5.4-19.8-8-29.8-1.2-4.8-2.8-9.5-4.1-14.3-1-3.7-1.6-7.5-2.3-11.3a43.6,43.6,0,0,0-2.6-9.2,4.08,4.08,0,0,1-.1-1.9,37.09,37.09,0,0,1,2.4-6.6c1.5-2.6,1.3-5.3,1.4-8,0-2.9-1-5.3-3.8-6.6a4.73,4.73,0,0,1-2.6-3.5A12.71,12.71,0,0,1,174,402.9Z"/><path class="cls-1" d="M117.6,306.2a9.17,9.17,0,0,1,3.7-4.5c2.6-1.9,5.5-2,8.5-1.5a69.61,69.61,0,0,1,10.3,2.1c4.4,1.4,8.8,2.7,12.5,6-.9,1-2.3,1.1-3.5,1.2-1.5,0-3-.3-4.5-.2a41.06,41.06,0,0,0-13.4,3.2,2,2,0,0,0-1.2,2.9,2.12,2.12,0,0,0,2.8,1.4c2.5-.7,5-1.7,7.5-2.3a62.56,62.56,0,0,1,17.3-1.2c14.1.9,26.6,6.4,38.9,12.7,4.2,2.2,8.3,4.6,11.3,8.3a70.58,70.58,0,0,1,4.2,6.4.73.73,0,0,1-.6,1.2c-3.5.2-6.4,2-9.5,3.3a5.59,5.59,0,0,1-2.5.5,3.45,3.45,0,0,1-2.1-1.2c-.5-.7,0-1.5.6-2.1a15,15,0,0,0,2-2.4,3.57,3.57,0,0,0,.1-2.5c-.2-.8-1-1-1.9-.9a32.72,32.72,0,0,1-5.4.4c-3.8-.1-7.7-.3-11.5-.6a24.54,24.54,0,0,1-8.8-2.4,31.5,31.5,0,0,0-17.4-2.8,35.61,35.61,0,0,0-16.3,6.4c-3.8,2.5-7.5,5.2-11.3,7.6-7.1,4.5-14.8,5-22.8,2.9-3-.8-6-1.8-9-2.4a14.83,14.83,0,0,0-4.7.1,5.07,5.07,0,0,0-3.8,3,29.63,29.63,0,0,1-8.6,10.6c-3.7,3.1-7.4,6.3-11.3,9.1a40.38,40.38,0,0,1-19.5,7.3,113.06,113.06,0,0,1-18.4.2A111.55,111.55,0,0,1,7,372.4a5.58,5.58,0,0,1-.8-.5,2.41,2.41,0,0,1,.6-.8c2.3-1.2,4.6-2.3,6.9-3.5,5.3-2.8,10.6-5.5,15.8-8.6a90.85,90.85,0,0,0,13.1-9.2c4.8-4,9.7-7.8,14.4-11.9a50.49,50.49,0,0,1,12.9-8.7q6.75-2.85,13.5-5.4,10.5-4.05,21-7.8a70.34,70.34,0,0,1,7.6-1.9,20,20,0,0,0,7.5-3.9,14.62,14.62,0,0,0,1.9-1.6q1.8-1.8-.6-2.4a5.85,5.85,0,0,0-1.3-.2A5.26,5.26,0,0,0,117.6,306.2Z"/><path class="cls-1" d="M334,436.1l2.1-.3c2.1-.4,2.9-1.4,2.7-3.5-.2-2.6-.2-2.6,2.4-3.2a38.77,38.77,0,0,1,4.9-1.1c1.6-.2,3.3,0,4.8-.8.8-.4,1.7.3,1.8,1.4a30,30,0,0,1-1.2,13.6c-6.5,18.4-12.8,36.9-19.2,55.3-1.5,4.3-3.2,8.5-4.9,12.7-1.3,3.2-2.4,6.5-3.8,9.7a44.27,44.27,0,0,1-3.6,5.9,5.85,5.85,0,0,1-2.1,1.7c-7.3,4-14.8,7.8-23,9.5-4.1.8-8.3,1.2-12.4,1.6-2.9.3-5.8.4-8.7.5-1.3,0-2.5-.2-3.8-.2l-8.7-.3c-4.6-.1-9.3-.4-13.6-2.3-1-.5-2-1.1-3-1.6v-.4a22.88,22.88,0,0,1,2.8-.8c7.4-1.4,13.8-4.9,19.6-9.5a115.51,115.51,0,0,0,15.4-14.3c3.6-4.1,6.8-8.5,10.2-12.8,1.1-1.4,2.1-2.9,3.3-4.3a5.45,5.45,0,0,1,2.4-1.5c2.8-.7,5.6-1.4,8.4-1.9a7.3,7.3,0,0,0,5.4-4.3c1.7-3.7,4.4-6.5,6.9-9.6,1.4-1.7,3-3.3,4.3-5.2,2.3-3.5,4.4-7.2,6.5-10.8,1.3-2.3,2.4-4.7,3.7-7s2.7-4.7,4-7.1a10.6,10.6,0,0,0,1-3,2.77,2.77,0,0,0-1.7-3.4,13.36,13.36,0,0,0-1.8-.7C334,437.6,333.8,437.2,334,436.1Z"/><path class="cls-1" d="M154.7,3.6a75.93,75.93,0,1,1-76,73.7A75.82,75.82,0,0,1,154.7,3.6Zm0,145.2c37.6,0,69.1-30.5,69.2-68.9a69.2,69.2,0,1,0-138.4-.3C85.4,117.7,116.6,148.8,154.7,148.8Z"/><path class="cls-1" d="M257.8,414.8c-4.9,0-9.8.2-14.8-.1-6-.3-12-.9-18-1.6-3.1-.4-5.2-2.6-6.7-5.1a25.81,25.81,0,0,1-1.8-4.6c-1.5-4.2-2.8-8.4-4.4-12.5a40.28,40.28,0,0,1-2.6-11.8,1.79,1.79,0,0,1,1.2-2.1c2.3-1.1,4.5-1.4,6.8.1a43.65,43.65,0,0,0,5.5,3.2c2.9,1.4,5.3,3.6,7.9,5.4a26.56,26.56,0,0,1,4,3.4c2,1.9,3.9,3.8,5.8,5.8.7.7,1.3,1.6,2.1,2.3,2.9,2.7,5.9,2.4,8.1-.9a136.68,136.68,0,0,0,8.2-13.1c2.8-5.4,7.1-8.7,12.7-10.8,3.6-1.3,7.2-2.7,10.8-4.1,2.2-.8,3-.3,3.9,1.9a13.16,13.16,0,0,0,1.9,2.9c4.2,5.8,8.4,11.6,11.7,17.9,1.1,2.1,2.2,4.3,3.3,6.5,2.2,4.7.1,7.9-2.7,10.3a24.12,24.12,0,0,1-14.7,6l-28.1,1.5A1.34,1.34,0,0,1,257.8,414.8Z"/><path class="cls-1" d="M233.9,342c-.7,4.8-1.4,9.4-2,13.9a2.35,2.35,0,0,1-.2.8c-.7,2.8,1,3.9,3.4,4.3a1.79,1.79,0,0,0,2.2-2.1c-.7-6.4,2-11.5,5.6-16.4a14.24,14.24,0,0,1,6-4.5,61.74,61.74,0,0,1,19.7-5.6,52.77,52.77,0,0,1,26.3,4.2,59.93,59.93,0,0,0,14.8,4.4,32.53,32.53,0,0,0,4.4.3c.8,0,1.5,0,1.7,1a1.48,1.48,0,0,1-1.3,1.7,42.09,42.09,0,0,1-4.9.9c-5,.3-10,.4-15,.5-7.6.2-15.3.4-22.9.8-4.7.3-8.2,2.8-10.8,6.6-2.1,3.1-4,6.3-6.1,9.3a39.62,39.62,0,0,1-11,10.2c-3.1,2-6.3,1.8-9.6.3-4.3-1.9-8.6-3.8-13-5.5a28,28,0,0,0-10-1.7,19.68,19.68,0,0,0-11.9,4.3,40.28,40.28,0,0,0-9.3,10,18.06,18.06,0,0,0-2.7,7.1c-.2.9-.8,2.3-1.5,2.5s-1.9-.5-2.7-1.1c-2-1.7-2.3-3.9-1.7-6.4,1.3-5.5,2.5-10.9,5.2-15.9,5.5-10.3,14.1-16.8,25.2-19.9,4.2-1.2,8.5-1.9,12.8-2.7C227.9,342.8,230.9,342.5,233.9,342Z"/><path class="cls-1" d="M134.8,411.7c.3-6.2.6-12.3,3-18.1a48.87,48.87,0,0,1,8.4-13.4c3.8-4.3,7.7-8.6,11.6-12.8a25.25,25.25,0,0,1,14.4-7.3,2.48,2.48,0,0,0,1.4-.8,3.24,3.24,0,0,1,2.8-1.4c.5,0,1.2.4,1.2.8a1.91,1.91,0,0,1-.6,1.6,5.31,5.31,0,0,1-1.9.6,5.36,5.36,0,0,0-1.9.7c-5.2,4-10.5,7.9-15.5,12-6.2,5.1-9.9,11.8-11.9,19.5-.4,1.7-.8,3.4-1.1,5.1a2.06,2.06,0,0,0,1.6,2.7c1.1.2,1.8-.3,2.1-1.7a41.28,41.28,0,0,1,6.1-14.3A57.12,57.12,0,0,1,169,370.8c2.5-1.8,5.1-3.5,7.8-5.2a6.4,6.4,0,0,1,2.6-1c1-.2,1.5.5,1.4,1.5a11.4,11.4,0,0,0-.2,2.6c.4,5.5-2.2,9.5-6,12.9a53,53,0,0,0-6,5.6c-4.3,5.6-4.5,11.7-1.5,18,.9,1.9,1.8,3.7,2.7,5.6,1.2,2.7,2.8,4.9,5.6,6.1,1.2.5,1.5,1.4,1,2.8a20.29,20.29,0,0,1-1.1,2.6c-4,7.9-7.9,15.8-11.9,23.6-1,2.1-2.5,3-4.1,2.4a3.94,3.94,0,0,1-2-1.5c-1.6-3.4-4.3-5.8-7.3-7.9-1.9-1.3-3.8-2.6-5.6-4a24,24,0,0,1-8.9-16C135.1,416.5,135,414.1,134.8,411.7Z"/><path class="cls-1" d="M306.1,329c.3-1.1.5-2.5.9-3.8,2.2-6.2,2.6-12.5,2.2-19-.5-7.2-.8-14.3-1.3-21.5a14.88,14.88,0,0,0-.8-4.2c-2-5.8-4-11.6-6.2-17.3a35.65,35.65,0,0,0-5.5-9.4,19.4,19.4,0,0,1-2.2-4c-1-2-2-3.9-4.1-5-.3-.1-.6-.6-.5-.8a2,2,0,0,1,.8-.8c2.1-.7,3.9.1,5.5,1.6a97.74,97.74,0,0,1,12.5,14,27.39,27.39,0,0,0,7,6.6c6.7,4.7,10.6,11.2,13,18.9,1.3,4.3,2.6,8.7,4,13a4.74,4.74,0,0,0,1.2,1.9,14,14,0,0,1,4.3,12c-.1,1.7-.1,3.4-.1,5.2-.1,2.7,0,5.4-.2,8a9,9,0,0,1-.9,3.2c-1.8,3.7-3.9,7.2-7.2,9.9a4.22,4.22,0,0,1-2.5.9,78.83,78.83,0,0,1-16.8-2.1,2.87,2.87,0,0,1-2.4-2.5C306.5,332.4,306.3,330.8,306.1,329Z"/><path class="cls-1" d="M209,277.6c.9-.2,1.5-.6,2-.5,3.4.6,6.8,1.4,9,4.5a36.22,36.22,0,0,0,2.7,4.1c2.6,3,5.3,5.8,8,8.8a63.18,63.18,0,0,1,6.3,7.4c4.9,7.3,5.1,15.1,1.6,23.1a11.82,11.82,0,0,0-1.4,5.5c0,.3,0,.8-.2,1a2.81,2.81,0,0,1-1.5.6c-.2,0-.7-.8-.6-1.1,1.4-4.1-.5-7.9-1.1-11.7-.2-1.5-2.8-2.4-4-1.4a2.23,2.23,0,0,0-.6,1.3c0,3.9-.1,7.8,0,11.6a10.56,10.56,0,0,1-1.9,6.2,3,3,0,0,1-2.6,1.5,24.32,24.32,0,0,1-2.7,0,2.23,2.23,0,0,1-1.9-3.1c1.2-4.8-.3-9-2.2-13.3-1.1-2.5-2-5-2.9-7.6a3.93,3.93,0,0,0-2.9-2.4,50.69,50.69,0,0,1-6.5-2.4c-2.2-1-2.7-2.4-2.3-4.7a27.59,27.59,0,0,1,.8-2.7,27.19,27.19,0,0,0,1.1-3.8,5.52,5.52,0,0,0-2.8-6.2c-6.9-4.1-14.1-7.1-22.4-6.4a25.49,25.49,0,0,1-3.9-.2c-3.5-.4-6.6.8-9.6,2.3-4,2.1-8.1,4.4-12.2,6.3a55.07,55.07,0,0,1-6.5,2.1c.2-2,1-3.3,2.3-3.9,4.9-2.3,8.7-6.3,13.3-9.1a48.66,48.66,0,0,1,19.2-6.5,35.31,35.31,0,0,1,26.4,7.7c3.2,2.6,6.2,5.5,9.2,8.4,1.3,1.2,2.1,1.6,3,1.1a2.68,2.68,0,0,0,.8-3.4,8.69,8.69,0,0,0-1.6-2.6c-1.9-2-3.9-4-5.9-5.9-1.1-1.1-2.4-1.9-3.6-2.9A5.83,5.83,0,0,1,209,277.6Z"/><path class="cls-1" d="M374.2,363.5c3.8.5,6.5-.6,6.8-3.3a28.54,28.54,0,0,0-.3-5c0-.5.1-.9.1-1.4.5.1,1.2-.1,1.6.2a7.16,7.16,0,0,1,2.6,5.3c.6,7.4-2.6,13.1-8.6,17.2a68,68,0,0,1-8.3,4.7c-1.7.9-2.3,1.3-2,2.5a2.8,2.8,0,0,0,3.4,2.3,18.07,18.07,0,0,0,4.2-1.6,6,6,0,0,1,3.2-1c.9,0,.9.4.9,1a6.43,6.43,0,0,1-3.7,5.8,52.71,52.71,0,0,1-5.1,1.9,12.27,12.27,0,0,0-2.6,1.2,2.62,2.62,0,0,0-1.3,2.8,2.33,2.33,0,0,0,1.9,2c1.2.3,2.4.3,3.6.6.5.1,1.3.3,1.4.6a2.49,2.49,0,0,1-.3,1.7,11.18,11.18,0,0,1-2.1,1.7c-2.2,1.4-4.5,2.6-6.6,4-1.9,1.3-1.8,2.2,0,3.6.6.4,1.2.9,1.9,1.3,1.8,1.3,1.7,3-.3,4a28.28,28.28,0,0,1-4.1,1.4,101.8,101.8,0,0,1-17.3,3.4,98.52,98.52,0,0,1-10.9.3c-1.9,0-2.6-1.2-2.1-3.1.7-2.6,1.6-5.2,2.3-7.9.6-2.2.9-4.5,1.4-6.8a11.37,11.37,0,0,1,3.4-5.5c1.9-1.7,3.6-3.6,5.4-5.5a12.07,12.07,0,0,1,10.1-3.9c2,.2,3.1-1.1,2.8-3.3a11.34,11.34,0,0,1,2.5-8.5,12.67,12.67,0,0,1,6.7-4.1,50.63,50.63,0,0,0,6.6-2.1,3.69,3.69,0,0,0,2-5.2,8,8,0,0,0-2.2-2.3c-2.9-2.6-5.9-5-9.7-6.3a36.85,36.85,0,0,0-4.5-1.1c-2-.3-2.6-1.3-1.7-3.2a9.39,9.39,0,0,1,1.2-1.8,1.69,1.69,0,0,1,2.1-.5c2.4.8,4.9,1.7,7.3,2.5a13.4,13.4,0,0,1,7.3,5.7A7.09,7.09,0,0,1,374.2,363.5Z"/><path class="cls-1" d="M362.3,251.1c1.9-.1,3.8-.3,5.7-.4,5-.3,9.4,1.6,13.4,4.3,2,1.3,4,2.6,5.3,4.7.6.9.4,1.5-.7,1.5a4.71,4.71,0,0,1-1.6-.4c-3.2-.9-6.3-2.2-9.6-2.8-4.1-.8-7.7.6-10.8,3.3a4.12,4.12,0,0,0-.7,5.5,51.19,51.19,0,0,0,4,5.5c2.4,3.1,2.3,4-1,6.1a56.18,56.18,0,0,0-5,3.5,10.43,10.43,0,0,0-3.4,7.1,40.92,40.92,0,0,0,.1,7c.2,2.5-.6,3.4-3.1,3a79.86,79.86,0,0,1-15.3-3.9c-1.2-.4-2.4-.8-3.6-1.3-1.8-.7-2.4-1.4-2.3-3.3.3-4.4-1.2-8.5-2.8-12.5a7.85,7.85,0,0,1,.6-7.3,34.89,34.89,0,0,1,11.1-11.5,139.41,139.41,0,0,1,12.9-7.5c2-1,4.5-.9,6.7-1.2A1.27,1.27,0,0,1,362.3,251.1Z"/><path class="cls-1" d="M331,439.8a5.65,5.65,0,0,1,1.3,0c.4.2,1,.7,1,1a6.07,6.07,0,0,1-2.5,5.3,4.85,4.85,0,0,0-2.5,4.1,27.09,27.09,0,0,1-5.7,13.5c-2.8,3.8-5.8,7.4-8.7,11.1-1.7,2.1-3.3,4.3-4.9,6.5a9.29,9.29,0,0,1-7.6,3.6c-1.6.1-3.2.5-4.8.7-.4,0-1.1-.2-1.2-.5a3.61,3.61,0,0,1-.3-1.8,12.78,12.78,0,0,0-1.8-7.7c-3.6-5.7-5.1-12.1-6.6-18.6-.4-1.6-.7-3.2-1-4.8-.3-1.8.2-2.6,1.9-3.2,8.9-2.7,17.8-5.6,26.9-7.3,5.5-1,11-1.6,16.6-2.3A.76.76,0,0,0,331,439.8Z"/><path class="cls-1" d="M247.4,234.2c.6,2.4,1.2,4.9,1.6,7.3.7,3.8,1.4,7.5,1.8,11.3.7,5.3,1.1,10.7,1.7,16.1.5,4.7,1,9.4,1.5,14,.2,1.6.5,3.1.6,4.7.1,1.9.1,3.7.2,5.6a13.51,13.51,0,0,0,.4,2.8,1.64,1.64,0,0,1-.8,2,18.11,18.11,0,0,0-2.1,1.8,2.91,2.91,0,0,1-3.4.8,3.12,3.12,0,0,1-2.1-3.2,9.72,9.72,0,0,1,.5-3.8c.9-2.1.5-4.2.4-6.2-.5-6.8-.8-13.5-1.4-20.3a78.68,78.68,0,0,0-1.7-9.7c-1.8-8.2-3.5-16.4-5.5-24.6a93.21,93.21,0,0,0-3.3-10.2c-1.9-5.5-3.7-11-5.9-16.4-2.3-5.9-5-11.7-7.4-17.6-.6-1.5-1-3-1.6-4.5a11.66,11.66,0,0,0-1.7-2.9,5.48,5.48,0,0,1-1.5-6c.5-1.5,1-2.9,1.6-4.4.1-.3.4-.7.6-.7a1.33,1.33,0,0,1,.9.6c.5,1.1.9,2.3,1.5,3.4,1.8,3.4,3.4,7,5.4,10.3a108,108,0,0,1,10.6,24.4,75.74,75.74,0,0,0,7.2,16.5c1.6,2.7,2,5.8,2.4,8.9C247.7,234.1,247.5,234.2,247.4,234.2Z"/><path class="cls-1" d="M298.5,269.7a11.48,11.48,0,0,1,1.3,2.4c1.2,4.4,2.3,8.8,3.4,13.3a28.8,28.8,0,0,1,.6,5.9,18.19,18.19,0,0,1-1.8,9.5,172.63,172.63,0,0,1-9.4,15.5c-2.1,3-5.1,5.3-7.8,7.9a6.4,6.4,0,0,1-4.5,1.4,30.59,30.59,0,0,0-4,.7c-.6.1-1.2.4-1.8.5a6.53,6.53,0,0,1-1.4,0,4.53,4.53,0,0,1,.3-1.6c.6-1,1.3-1.9,1.9-2.9,3.9-6.4,7.5-13,9.5-20.3a23.24,23.24,0,0,0-1.9-17.7,6.61,6.61,0,0,1-.7-2.5,2.22,2.22,0,0,1,1.3-2.5,49.58,49.58,0,0,1,4.7-2.2,28,28,0,0,0,8.5-5C297.3,271.5,297.7,270.7,298.5,269.7Z"/><path class="cls-1" d="M296.2,362.6c-.3-3.4,2.3-5.1,4.8-5.3,5.4-.4,10.5-2.1,15.8-2.8a57.84,57.84,0,0,1,9.3-.3c1.7,0,2.4,1.1,2.1,2.8a35.13,35.13,0,0,1-7.4,16c-4.1,4.9-8.5,9.4-12.8,14.1-.9,1-1.8.8-2.8-.4a40.43,40.43,0,0,1-7.3-14.3c-.9-3.2-1.4-6.4-2-9.7A.37.37,0,0,0,296.2,362.6Z"/><path class="cls-1" d="M211.7,153.6c-1.4.1-2.9.2-4.3.4a1.52,1.52,0,0,0-1.4,1.9,22.64,22.64,0,0,0,1.1,4.3,15.65,15.65,0,0,1-.1,12.2c-.7,1.7-1.3,3.4-2,5.1-.4.9-.8,1.7-1.9,1.7s-1.5-.8-1.8-1.6c-2.1-5.3-5.7-9.6-9-14.1a12.44,12.44,0,0,1-1.9-3.6c-.9-2.6.1-4.7,2.4-6.2a16.66,16.66,0,0,1,7.2-2.1c3.3-.4,4.3-1.2,5.1-4.4.5-2.2,1.8-3.2,4.2-3.6a19.3,19.3,0,0,1,10.1,1c1.6.6,3.4.9,5.2,1.4.5.1,1.2.3,1.3.6a1.74,1.74,0,0,1-.5,1.5c-3.4,3.9-7.7,6.1-13,5.6a1.7,1.7,0,0,1-.7-.1Z"/><path class="cls-1" d="M170.7,354.2a7.94,7.94,0,0,1-1.7,1.4c-3.4,1.7-6.8,3.4-10.2,5a12,12,0,0,1-2.7.8,1.75,1.75,0,0,1-2.2-1.5,19.34,19.34,0,0,1-.6-4.1c0-5.7,0-11.5.1-17.2.1-2.2,2-3.3,4.1-2.6.8.3,1.1.8.8,1.6s-.5,1.7-.7,2.5a1.62,1.62,0,0,0,.8,2.1c.9.4,1.8.6,2.5-.2a6.7,6.7,0,0,0,1.1-1.8c1.5-3.3,3.7-4.3,6.8-2.4,3.4,2.1,7,2.7,10.8,2.9a80.82,80.82,0,0,1,8.6,1.1,2.16,2.16,0,0,1,2,2.1,5.19,5.19,0,0,1-2,5.1c-3.4,2.5-7,2.8-11,1.7-4.6-1.4-9.2-2.7-13.8-4-.3-.1-.7-.1-1.1-.2-1-.2-1.3.3-1.3,1.2a4.43,4.43,0,0,0,2.6,3.8C165.9,352.3,168.2,353.1,170.7,354.2Z"/><path class="cls-1" d="M180.8,395.2c1.7.5,3,.9,4.3,1.2,3.1.7,5.3-.1,6.7-3a28.82,28.82,0,0,0,2-6.5c.9-4.8,3-5.3,7-4.9,2.2.2,3.2,1.4,3.7,3.5a107.48,107.48,0,0,0,8.7,23.1,2,2,0,0,1,0,1.7,2,2,0,0,1-1.5.5,126.28,126.28,0,0,1-30.5-9.8c-2-1-2.6-2.7-1.7-4.6C179.7,395.9,180.4,395.5,180.8,395.2Z"/><path class="cls-1" d="M327.6,390.1a1.09,1.09,0,0,1,.1-.5c1-2.3.7-4.6.2-7-1.3-6,1.9-10.8,6.5-13.4a29.46,29.46,0,0,1,10-3.3,23.58,23.58,0,0,1,4.6.1,3.51,3.51,0,0,1,3.2,2.8,29.29,29.29,0,0,1,.7,4.1,4.5,4.5,0,0,1-1.8,4,43.19,43.19,0,0,0-7.5,7.3,21,21,0,0,1-8.7,6,40,40,0,0,0-4.2,2C329,393,327.6,392.2,327.6,390.1Z"/><path class="cls-1" d="M342.7,252.1a6.55,6.55,0,0,1-.8,1.3,2.55,2.55,0,0,1-1.2.8c-3.4,1.7-5.8,4.5-8.1,7.5-1.4,1.8-3,3.4-4.5,5.1a10.92,10.92,0,0,0-1.3,1.7c-.4.6-1,.6-1.3,0-1.1-2.1-3.1-3.2-5-4.3-3.6-2.1-6.4-5.1-9.1-8.2a1.42,1.42,0,0,1,.1-2.2,10.76,10.76,0,0,1,6.5-3.5c5.1-.8,10.3-1.5,15.5-2.2.2,0,.5-.1.7-.1,2.1.5,4.2,1,6.2,1.5A2.78,2.78,0,0,1,342.7,252.1Z"/><path class="cls-1" d="M277.2,479.4c-.2,2.4-1.1,3.4-3.3,4.1a43.09,43.09,0,0,0-4.9,2.2c-1.3.6-2.7,1.1-3.9,1.7s-2.5,1.5-3.8,2.3a8.65,8.65,0,0,1-1,.7c-2.3,1.8-4,1.6-6.1-1-1.2-1.5-2.1-3.2-3.2-4.8a11.9,11.9,0,0,0-1.9-2,2,2,0,0,1,0-3.3c2.9-2.4,6.4-3.7,9.8-5.1,2.7-1.1,5.4-2.4,8.1-3.6.3-.1.7-.3,1-.2,3.5,1.2,6.7,2.9,8.4,6.4A15.25,15.25,0,0,1,277.2,479.4Z"/><path class="cls-1" d="M264.4,314.3a36.85,36.85,0,0,1,4.5,1.1c2.4.8,2.8,3,1.1,4.9-1.4,1.5-2.7,3.1-4,4.8-1.5,2-3.3,3.4-6,3.3a2.92,2.92,0,0,0-.9.2c-.8.3-1.6.8-2.3-.1a2.9,2.9,0,0,1-.1-3.1,3.77,3.77,0,0,1,1.6-1.2c3.8-1.4,4.3-2.3,3-6.1C260.5,315.4,261.3,314.5,264.4,314.3Z"/><path class="cls-1" d="M171.4,180.9a30.92,30.92,0,0,1,2-3.7c2.3-3.2,4.8-6.3,7.2-9.4,1-1.4,2.1-2.7,3.2-4,.8-1,1.3-.9,1.8.3s.8,2.3,1.1,3.4c.5,2.3-.3,3.7-2.3,5a29.72,29.72,0,0,0-4.8,3.8c-2.1,2.1-4.1,4-7.1,4.5A5.38,5.38,0,0,0,171.4,180.9Z"/><path class="cls-1" d="M376,352.2a19.47,19.47,0,0,1-2-.9,70.47,70.47,0,0,0-14.7-6.2c-1.3-.3-2.6-.6-3.8-.8s-1.5-.7-1.1-1.8c.6-2.1,1.6-2.6,3.7-1.9a90.07,90.07,0,0,1,17.8,8.3,2.72,2.72,0,0,1,1,.8c.3.5.9,1.3.7,1.6S376.5,351.9,376,352.2Z"/><path class="cls-1" d="M304.1,309.4a24,24,0,0,1-.3,2.8,3.19,3.19,0,0,1-.9,1.6,17.24,17.24,0,0,1-2.7,2.7,2.71,2.71,0,0,0-.9,2.7,11.33,11.33,0,0,1-.1,3.2,5,5,0,0,1-3.8,4.1c-1.4.4-2.9.5-4.4.8-.1-.1-.2-.2-.2-.3l1.8-2.7c3-4.4,6.1-8.8,9.1-13.2C302.3,310.3,302.9,309.4,304.1,309.4Z"/><path class="cls-1" d="M322.9,436.2c-.8,0-1.3-.5-1-1.7a33.74,33.74,0,0,1,1-3.4,1.65,1.65,0,0,1,2.4-1.2,8.67,8.67,0,0,0,4.5.6q2.1-.15,1.8,2.1c-.3,1.8-.9,2.6-2.8,3C327,435.8,325.2,436,322.9,436.2Z"/><path class="cls-1" d="M286.3,357.2a19.22,19.22,0,0,1-2.4,0c-1.3-.1-1.8-.8-1.4-2.1a21.1,21.1,0,0,1,1.6-3.4c.5-.8,1.2-.9,2.1-.4,1.4.7,2.8,1.2,4.3,1.8.8.3,1.7.5,1.8,1.5a2,2,0,0,1-1.7,2c-1.4.4-2.9.5-4.3.8Z"/><path class="cls-1" d="M206.6,325c-2.4-.1-5.8-3.1-6.2-5.5-.1-.8.2-1.3,1-1.4a19.8,19.8,0,0,0,2.6-.6,2.44,2.44,0,0,1,2.4,1.2,9.36,9.36,0,0,1,.4,1.6,13.82,13.82,0,0,0,.8,2.7C208.1,324,207.6,325,206.6,325Z"/><path class="cls-1" d="M253.4,307.7a7.56,7.56,0,0,1-2.7,4c-2.1,1.7-2.6,1.4-3-1.1-.1-.8-.3-1.6-.4-2.3-.2-1.3.1-1.9,1.4-2.2,1-.3,2-.5,3-.8S253.4,306,253.4,307.7Z"/><path class="cls-1" d="M348.5,359.8a5.27,5.27,0,0,1,6.5.4c.3.3.6.8.5,1a1.17,1.17,0,0,1-1,.6A6.87,6.87,0,0,1,348.5,359.8Z"/><path class="cls-1" d="M193,567.6c-.1-5.5,1-11,1.8-16.4.2-1.2.4-2.4.6-3.7.3-1.6,1-2.1,2.5-1.6a39.62,39.62,0,0,1,13.8,7.2,83.89,83.89,0,0,1,6.8,6.5c2.4,2.5,2.2,5.4-.4,7.9-1.9,1.9-4,3.6-5.9,5.5s-3.4,4-5.3,5.7c-2.3,2-4.8,3.8-7.3,5.6-1.7,1.2-2.8.8-3.6-1.1A35.76,35.76,0,0,1,193,567.6Zm6,5.6c.9,0,2.1-.9,2.1-1.8s-1.1-2.2-1.7-2.2c-.9,0-2.2,1-2.2,1.9A2.25,2.25,0,0,0,199,573.2Z"/><path d="M154.7,148.8c-38,.1-69.2-31.1-69.2-69.2,0-37.6,30.4-69.3,69.2-69.3a69.25,69.25,0,0,1,0,138.5Zm37.5-67.6c-.2-2.4-.3-4.8-.6-7.1A33.83,33.83,0,0,0,178,51.4a37.69,37.69,0,0,0-29.3-7.8,36.24,36.24,0,0,0-23.8,13.2,37.3,37.3,0,0,0-8.5,30.6,36.82,36.82,0,0,0,13.7,23.8c9.7,7.7,20.7,10.1,32.8,7.4a37.15,37.15,0,0,0,25.2-19.1A37.74,37.74,0,0,0,192.2,81.2Zm18.6-20.4a.37.37,0,0,0,.3-.1,53,53,0,0,0-1.5-5.7,64.21,64.21,0,0,0-3.9-9.4c-4.5-8.1-11.2-14.4-18.9-19.5-4-2.6-8.3-4.3-13.3-3.7-2.4.3-3.8,1-4.4,2.9a8.79,8.79,0,0,0,1.1,7.7,10.86,10.86,0,0,0,4.6,3.9c9.9,5.4,19,11.9,26.6,20.3,1.7,1.8,3.3,3.7,5,5.5a2.62,2.62,0,0,0,3,.8A2.37,2.37,0,0,0,210.8,60.8ZM207.6,82v3.8a4.55,4.55,0,0,0,5.2,4.2,2.31,2.31,0,0,0,1.4-1,6,6,0,0,0,1-4.7c-.4-2.1-.9-4.2-1.4-6.3-.7-2.7-2.8-3.2-5-2.1a2.45,2.45,0,0,0-1.1,1.7A32.33,32.33,0,0,0,207.6,82Z"/><path d="M199,573.2a2.25,2.25,0,0,1-1.8-2.1c0-.8,1.3-1.9,2.2-1.9a2.39,2.39,0,0,1,1.7,2.2A2.16,2.16,0,0,1,199,573.2Z"/><path class="cls-1" d="M192.2,81.2a36.1,36.1,0,0,1-4.1,18,36.59,36.59,0,0,1-25.2,19.1,37.08,37.08,0,0,1-32.8-7.4,36.41,36.41,0,0,1-13.7-23.8,38.34,38.34,0,0,1,61.6-36c7.4,5.8,12.2,13.3,13.6,22.7C191.9,76.5,192,78.9,192.2,81.2Zm-8.2-.5c0-5.8-1.2-10.7-3.5-14.6-4.2-7-10.5-11.2-18.3-13.4a30.16,30.16,0,0,0-8.4-1.4,31.24,31.24,0,0,0-8,1.4c-9.1,2.5-16,7.8-19.4,16.9a33.7,33.7,0,0,0-1.5,17.8c1.4,8.4,5.5,15,12.9,19.3s15.2,5.3,23.5,3.7a26.24,26.24,0,0,0,16.4-10.3A32.78,32.78,0,0,0,184,80.7Z"/><path class="cls-1" d="M210.8,60.8c.1,1.2-.1,2.2-1.3,2.7a2.62,2.62,0,0,1-3-.8c-1.7-1.8-3.4-3.6-5-5.5-7.6-8.4-16.7-14.9-26.6-20.3a12.47,12.47,0,0,1-4.6-3.9,9.13,9.13,0,0,1-1.1-7.7c.6-1.9,2-2.6,4.4-2.9,5-.6,9.3,1.1,13.3,3.7,7.7,5.1,14.3,11.4,18.9,19.5a71.35,71.35,0,0,1,3.9,9.4,53,53,0,0,1,1.5,5.7C211,60.7,210.9,60.7,210.8,60.8Z"/><path class="cls-1" d="M207.6,82a30.88,30.88,0,0,1,.1-4.3,2.57,2.57,0,0,1,1.1-1.7c2.2-1,4.3-.6,5,2.1.5,2.1,1,4.2,1.4,6.3a6,6,0,0,1-1,4.7,3.59,3.59,0,0,1-1.4,1,4.43,4.43,0,0,1-5.2-4.2Z"/><path d="M184,80.7a32.43,32.43,0,0,1-6.4,19.4,26.08,26.08,0,0,1-16.4,10.3,32.81,32.81,0,0,1-23.5-3.7c-7.4-4.3-11.5-11-12.9-19.3a33.7,33.7,0,0,1,1.5-17.8c3.4-9.1,10.3-14.4,19.4-16.9a31.24,31.24,0,0,1,8-1.4,30.16,30.16,0,0,1,8.4,1.4c7.7,2.2,14.1,6.3,18.3,13.4C182.8,70.1,184,74.9,184,80.7Zm-26.4,25.5h0a18.19,18.19,0,0,0,3.3,0,1.39,1.39,0,0,0,1.5-1.4c.1-3.1,1.8-5.2,4.1-7.1a30.52,30.52,0,0,0,4.5-4.3c4.2-5.3,4.9-11.3,3.5-17.7a9.73,9.73,0,0,1,.4-6.3,3.59,3.59,0,0,0,.1-2.5,14.23,14.23,0,0,0-2.5-3.4,2.29,2.29,0,0,0-1.7-.3,23.72,23.72,0,0,1-4.6.3,31.81,31.81,0,0,1-5.1-1.3,18.14,18.14,0,0,0-14.6,1.4,40.52,40.52,0,0,0-5.7,4.3c-1.5,1.2-2.9,2.6-4.9,2.5-3.2-.1-5.4,3.3-5.7,5.7a3.77,3.77,0,0,0,1.1,3,24.57,24.57,0,0,1,3.4,4.4,15.06,15.06,0,0,1,1.4,3.5c2.4,6.4,6.6,11,13.2,13.3,2,.7,3.3,1.8,3.4,4.1.1,1.3.8,1.9,2.2,1.9A25.28,25.28,0,0,1,157.6,106.2Z"/></svg>